<?xml version="1.0" encoding="UTF-8" standalone="no"?>
<!-- Created with Inkscape (http://www.inkscape.org/) -->

<svg
   xmlns:dc="http://purl.org/dc/elements/1.1/"
   xmlns:cc="http://creativecommons.org/ns#"
   xmlns:rdf="http://www.w3.org/1999/02/22-rdf-syntax-ns#"
   xmlns:svg="http://www.w3.org/2000/svg"
   xmlns="http://www.w3.org/2000/svg"
   xmlns:sodipodi="http://sodipodi.sourceforge.net/DTD/sodipodi-0.dtd"
   xmlns:inkscape="http://www.inkscape.org/namespaces/inkscape"
   id="svg3004"
   version="1.1"
   inkscape:version="0.48.2 r9819"
   width="425.79724"
   height="90"
   xml:space="preserve"
   sodipodi:docname="oceanspaces_logo_white.svg"><metadata
     id="metadata3010"><rdf:RDF><cc:Work
         rdf:about=""><dc:format>image/svg+xml</dc:format><dc:type
           rdf:resource="http://purl.org/dc/dcmitype/StillImage" /><dc:title></dc:title></cc:Work></rdf:RDF></metadata><defs
     id="defs3008"><clipPath
       clipPathUnits="userSpaceOnUse"
       id="clipPath3018"><path
         d="M 0,612 792,612 792,0 0,0 0,612 z"
         id="path3020"
         inkscape:connector-curvature="0" /></clipPath></defs><sodipodi:namedview
     pagecolor="#ffffff"
     bordercolor="#666666"
     borderopacity="1"
     objecttolerance="10"
     gridtolerance="10"
     guidetolerance="10"
     inkscape:pageopacity="0"
     inkscape:pageshadow="2"
     inkscape:window-width="1089"
     inkscape:window-height="873"
     id="namedview3006"
     showgrid="false"
     fit-margin-top="0"
     fit-margin-left="0"
     fit-margin-right="0"
     fit-margin-bottom="0"
     inkscape:zoom="0.65656566"
     inkscape:cx="256.26832"
     inkscape:cy="-235.03846"
     inkscape:window-x="606"
     inkscape:window-y="56"
     inkscape:window-maximized="0"
     inkscape:current-layer="g3012" /><g
     id="g3012"
     inkscape:groupmode="layer"
     inkscape:label="oceanspaces_logo_white"
     transform="matrix(1.25,0,0,-1.25,-6.5076875,759.6)"><g
       id="g3014"
       transform="translate(-210.79385,427.68)"><g
         id="g3016"
         clip-path="url(#clipPath3018)"><g
           id="g3022"
           transform="translate(258.751,112.75)"><path
             d="m 0,0 c -17.231,0 -31.251,14.019 -31.251,31.25 0,17.231 14.02,31.25 31.251,31.25 7.763,0 14.866,-2.852 20.337,-7.553 -6.599,7.537 -16.284,12.303 -27.089,12.303 -19.881,0 -35.999,-16.115 -35.999,-36 0,-19.881 16.118,-36 35.999,-36 C 4.054,-4.749 13.74,0.018 20.339,7.557 15.19,3.131 8.595,0.349 1.366,0.035 0.913,0.012 0.457,0 0,0"
             style="fill:#ffffff;fill-opacity:1;fill-rule:nonzero;stroke:none"
             id="path3024"
             inkscape:connector-curvature="0" /></g><g
           id="g3026"
           transform="translate(258.751,173.25)"><path
             d="m 0,0 c -16.157,0 -29.251,-13.096 -29.251,-29.25 0,-6.725 2.275,-12.916 6.09,-17.856 -2.277,3.933 -3.588,8.493 -3.588,13.356 0,14.749 11.998,26.749 26.75,26.75 l 0.004,0 c 7.144,0 13.861,-2.783 18.913,-7.835 5.052,-5.053 7.833,-11.77 7.832,-18.915 0.001,-4.722 -1.222,-9.253 -3.504,-13.244 3.478,4.549 5.655,10.144 5.965,16.236 0.02,0.501 0.038,1.002 0.038,1.508 0,0.506 -0.018,1.007 -0.038,1.507 C 28.427,-12.289 15.649,0 0,0"
             style="fill:#ffffff;fill-opacity:1;fill-rule:nonzero;stroke:none"
             id="path3028"
             inkscape:connector-curvature="0" /></g><g
           id="g3030"
           transform="translate(245.1367,153.8125)"><path
             d="m 0,0 c 0.376,0.037 0.758,0.055 1.145,0.058 0.031,0 0.062,0.005 0.095,0.005 3.838,0 7.448,-1.497 10.164,-4.211 2.715,-2.717 4.211,-6.327 4.21,-10.165 10e-4,-3.839 -1.495,-7.451 -4.21,-10.166 -2.715,-2.714 -6.324,-4.21 -10.164,-4.21 -3.996,0 -7.615,1.642 -10.222,4.285 3.863,-8.637 12.524,-14.659 22.596,-14.659 0.428,0 0.853,0.014 1.277,0.033 13.076,0.664 23.475,11.477 23.473,24.717 0.002,13.669 -11.077,24.751 -24.745,24.751 l -0.004,0 -0.004,0 C 3.539,10.437 -5.123,4.412 -8.984,-4.226 -6.65,-1.859 -3.503,-0.303 0,0"
             style="fill:#ffffff;fill-opacity:1;fill-rule:nonzero;stroke:none"
             id="path3032"
             inkscape:connector-curvature="0" /></g><g
           id="g3034"
           transform="translate(246.377,127.123)"><path
             d="m 0,0 c 6.834,0 12.375,5.541 12.374,12.377 0,0.872 -0.093,1.722 -0.265,2.543 0.003,-0.1 0.016,-0.195 0.016,-0.295 C 12.125,7.939 6.686,2.5 0,2.5 c -6.686,0.002 -12.125,5.441 -12.125,12.125 0,0.102 0.013,0.199 0.016,0.299 -0.173,-0.822 -0.266,-1.674 -0.266,-2.547 C -12.375,5.543 -6.834,0 0,0"
             style="fill:#ffffff;fill-opacity:1;fill-rule:nonzero;stroke:none"
             id="path3036"
             inkscape:connector-curvature="0" /></g><g
           id="g3038"
           transform="translate(236.252,141.748)"><path
             d="m 0,0 c 0,-5.592 4.531,-10.123 10.125,-10.125 5.591,0 10.125,4.533 10.125,10.125 0,5.244 -3.984,9.556 -9.09,10.074 -0.342,0.03 -0.685,0.053 -1.035,0.053 -0.35,0 -0.694,-0.023 -1.037,-0.053 C 3.983,9.555 0,5.242 0,0"
             style="fill:#ffffff;fill-opacity:1;fill-rule:nonzero;stroke:none"
             id="path3040"
             inkscape:connector-curvature="0" /></g><g
           id="g3042"
           transform="translate(318.5313,143.6475)"><path
             d="m 0,0 0,0.088 c 0,5.405 -4.043,9.711 -9.229,9.711 -5.316,0 -9.14,-4.35 -9.14,-9.623 l 0,-0.088 c 0,-5.406 4.043,-9.711 9.228,-9.711 C -3.824,-9.623 0,-5.273 0,0 m -20.698,0 0,0.088 c 0,6.284 4.879,11.732 11.557,11.732 6.635,0 11.469,-5.361 11.469,-11.644 l 0,-0.088 c 0,-6.284 -4.878,-11.734 -11.557,-11.734 -6.635,0 -11.469,5.363 -11.469,11.646"
             style="fill:#ffffff;fill-opacity:1;fill-rule:nonzero;stroke:none"
             id="path3044"
             inkscape:connector-curvature="0" /></g><g
           id="g3046"
           transform="translate(325.959,143.6475)"><path
             d="m 0,0 0,0.088 c 0,6.284 5.01,11.732 11.426,11.732 3.865,0 6.415,-1.67 8.435,-3.558 0.176,-0.177 0.309,-0.484 0.309,-0.792 0,-0.615 -0.483,-1.098 -1.099,-1.098 -0.263,0 -0.571,0.087 -0.747,0.263 -1.803,1.715 -3.911,3.164 -6.943,3.164 -5.097,0 -9.053,-4.263 -9.053,-9.623 l 0,-0.088 c 0,-5.406 4.088,-9.711 9.23,-9.711 2.899,0 5.227,1.405 7.03,3.208 0.176,0.175 0.394,0.351 0.703,0.351 0.527,0 1.055,-0.528 1.055,-1.054 0,-0.22 -0.088,-0.485 -0.264,-0.659 -2.241,-2.286 -4.834,-3.869 -8.656,-3.869 C 4.965,-11.646 0,-6.283 0,0"
             style="fill:#ffffff;fill-opacity:1;fill-rule:nonzero;stroke:none"
             id="path3048"
             inkscape:connector-curvature="0" /></g><g
           id="g3050"
           transform="translate(368.9824,144.7891)"><path
             d="M 0,0 C -0.309,4.526 -2.901,8.701 -8.042,8.701 -12.48,8.701 -15.908,4.966 -16.304,0 L 0,0 z m -7.603,-12.787 c -5.887,0 -10.985,4.702 -10.985,11.689 l 0,0.088 c 0,6.503 4.568,11.689 10.633,11.689 6.284,0 10.283,-5.186 10.283,-11.601 0,-0.527 -0.527,-1.011 -1.055,-1.011 l -17.577,0 c 0.396,-5.58 4.395,-8.832 8.788,-8.832 3.207,0 5.45,1.319 7.252,3.076 0.174,0.176 0.395,0.307 0.703,0.307 0.571,0 1.054,-0.439 1.054,-1.011 0,-0.218 -0.088,-0.483 -0.351,-0.747 -2.197,-2.197 -4.703,-3.647 -8.745,-3.647"
             style="fill:#ffffff;fill-opacity:1;fill-rule:nonzero;stroke:none"
             id="path3052"
             inkscape:connector-curvature="0" /></g><g
           id="g3054"
           transform="translate(393.8242,140.9229)"><path
             d="m 0,0 0,2.549 c -1.89,0.483 -4.395,1.011 -7.604,1.011 -4.745,0 -7.381,-2.11 -7.381,-5.23 l 0,-0.088 c 0,-3.252 3.076,-5.14 6.504,-5.14 C -3.912,-6.898 0,-4.087 0,0 m -17.27,-1.889 0,0.087 c 0,4.658 3.999,7.295 9.799,7.295 3.121,0 5.274,-0.395 7.427,-0.967 l 0,0.967 c 0,4.526 -2.769,6.855 -7.383,6.855 -2.46,0 -4.526,-0.616 -6.371,-1.494 -0.177,-0.088 -0.352,-0.132 -0.484,-0.132 -0.527,0 -1.011,0.483 -1.011,1.01 0,0.529 0.397,0.879 0.616,0.968 2.284,1.01 4.526,1.668 7.382,1.668 3.032,0 5.449,-0.834 7.074,-2.459 1.494,-1.494 2.285,-3.56 2.285,-6.328 l 0,-13.052 c 0,-0.658 -0.438,-1.097 -1.054,-1.097 -0.615,0 -1.054,0.439 -1.054,1.097 l 0,2.813 c -1.538,-2.153 -4.306,-4.263 -8.569,-4.263 -4.175,0 -8.657,2.373 -8.657,7.032"
             style="fill:#ffffff;fill-opacity:1;fill-rule:nonzero;stroke:none"
             id="path3056"
             inkscape:connector-curvature="0" /></g><g
           id="g3058"
           transform="translate(403.625,154.0186)"><path
             d="M 0,0 C 0,0.614 0.439,1.098 1.055,1.098 1.67,1.098 2.154,0.658 2.154,0 l 0,-3.253 c 1.492,2.637 3.998,4.702 8.084,4.702 5.668,0 8.965,-3.867 8.965,-9.228 l 0,-12.787 c 0,-0.659 -0.439,-1.098 -1.055,-1.098 -0.615,0 -1.097,0.439 -1.097,1.098 l 0,12.392 c 0,4.613 -2.594,7.646 -7.119,7.646 -4.395,0 -7.778,-3.34 -7.778,-7.997 l 0,-12.041 c 0,-0.659 -0.439,-1.098 -1.054,-1.098 -0.618,0 -1.1,0.439 -1.1,1.098 L 0,0 z"
             style="fill:#ffffff;fill-opacity:1;fill-rule:nonzero;stroke:none"
             id="path3060"
             inkscape:connector-curvature="0" /></g><g
           id="g3062"
           transform="translate(438.4248,145.1338)"><path
             d="m 0,0 c -5.339,1.093 -6.352,2.478 -6.352,4.65 l 0,0.065 c 0,2.298 2.198,3.967 5.226,3.967 2.327,0 4.194,-0.64 6.053,-2.072 0.209,-0.166 0.465,-0.256 0.734,-0.256 0.618,0 1.14,0.522 1.14,1.139 0,0.348 -0.166,0.672 -0.468,0.914 -2.241,1.679 -4.45,2.393 -7.395,2.393 -4.315,0 -7.569,-2.685 -7.569,-6.246 l 0,-0.065 c 0,-3.6 2.279,-5.53 7.865,-6.661 5.177,-1.041 6.159,-2.391 6.159,-4.52 l 0,-0.066 c 0,-2.468 -2.23,-4.191 -5.421,-4.191 -2.974,0 -5.194,0.856 -7.425,2.864 -0.145,0.111 -0.407,0.271 -0.749,0.271 -0.619,0 -1.142,-0.522 -1.142,-1.14 0,-0.338 0.159,-0.659 0.437,-0.881 2.716,-2.235 5.426,-3.232 8.783,-3.232 4.59,0 7.796,2.661 7.796,6.471 l 0,0.065 C 7.672,-3.047 5.378,-1.094 0,0"
             style="fill:#ffffff;fill-opacity:1;fill-rule:nonzero;stroke:none"
             id="path3064"
             inkscape:connector-curvature="0" /></g><g
           id="g3066"
           transform="translate(460.0117,142.9736)"><path
             d="m 0,0 -5.905,0 0,10.485 6.098,0 c 4.103,0 6.552,-1.929 6.552,-5.161 l 0,-0.064 C 6.745,2.114 4.034,0 0,0 m 9.024,5.421 c 0,4.383 -3.415,7.215 -8.702,7.215 l -7.367,0 c -0.618,0 -1.14,-0.522 -1.14,-1.139 l 0,-21.071 c 0,-0.617 0.522,-1.139 1.14,-1.139 0.618,0 1.14,0.522 1.14,1.139 l 0,7.424 5.807,0 c 4.541,0 9.122,2.32 9.122,7.505 l 0,0.066 z"
             style="fill:#ffffff;fill-opacity:1;fill-rule:nonzero;stroke:none"
             id="path3068"
             inkscape:connector-curvature="0" /></g><g
           id="g3070"
           transform="translate(485.4971,140.8408)"><path
             d="M 0,0 -10.991,0 -5.48,12.065 0,0 z m -4.012,14.013 c -0.306,0.661 -0.765,0.982 -1.403,0.982 l -0.064,0 c -0.636,0 -1.094,-0.32 -1.403,-0.98 l -9.663,-20.942 c -0.141,-0.279 -0.156,-0.542 -0.156,-0.642 0,-0.558 0.482,-1.011 1.075,-1.011 0.343,0 0.81,0.138 1.085,0.796 l 2.565,5.667 12.962,0 2.57,-5.643 c 0.232,-0.513 0.648,-0.82 1.113,-0.82 0.611,0 1.108,0.482 1.108,1.074 0,0.225 -0.051,0.432 -0.163,0.652 l -9.626,20.867 z"
             style="fill:#ffffff;fill-opacity:1;fill-rule:nonzero;stroke:none"
             id="path3072"
             inkscape:connector-curvature="0" /></g><g
           id="g3074"
           transform="translate(513.1406,137.5137)"><path
             d="m 0,0 c -0.294,0 -0.569,-0.12 -0.795,-0.347 -2.235,-2.133 -4.376,-3.047 -7.154,-3.047 -5.197,0 -9.267,4.34 -9.267,9.88 l 0,0.065 c 0,5.595 3.97,9.814 9.234,9.814 2.676,0 4.836,-0.883 7.004,-2.862 0.184,-0.184 0.488,-0.304 0.785,-0.304 0.624,0 1.171,0.532 1.171,1.14 0,0.319 -0.138,0.619 -0.411,0.89 -1.989,1.699 -4.384,3.255 -8.516,3.255 -6.511,0 -11.611,-5.27 -11.611,-11.998 l 0,-0.064 c 0,-6.803 4.964,-11.934 11.546,-11.934 3.429,0 6.051,1.077 8.767,3.603 0.235,0.235 0.355,0.509 0.355,0.801 C 1.108,-0.518 0.591,0 0,0"
             style="fill:#ffffff;fill-opacity:1;fill-rule:nonzero;stroke:none"
             id="path3076"
             inkscape:connector-curvature="0" /></g><g
           id="g3078"
           transform="translate(535.1406,134.54)"><path
             d="m 0,0 -13.628,0 0,8.481 12.013,0 c 0.583,0 1.075,0.493 1.075,1.077 0,0.583 -0.492,1.075 -1.075,1.075 l -12.013,0 0,8.286 13.466,0 c 0.583,0 1.075,0.492 1.075,1.075 0,0.583 -0.492,1.075 -1.075,1.075 l -14.606,0 c -0.617,0 -1.139,-0.521 -1.139,-1.138 l 0,-20.943 c 0,-0.617 0.522,-1.138 1.139,-1.138 L 0,-2.15 c 0.583,0 1.075,0.492 1.075,1.075 C 1.075,-0.492 0.583,0 0,0"
             style="fill:#ffffff;fill-opacity:1;fill-rule:nonzero;stroke:none"
             id="path3080"
             inkscape:connector-curvature="0" /></g><g
           id="g3082"
           transform="translate(548.9658,145.1338)"><path
             d="m 0,0 c -5.339,1.092 -6.352,2.477 -6.352,4.65 l 0,0.065 c 0,2.298 2.198,3.967 5.226,3.967 2.327,0 4.194,-0.64 6.055,-2.072 0.203,-0.164 0.464,-0.256 0.73,-0.256 0.619,0 1.142,0.522 1.142,1.139 0,0.348 -0.166,0.672 -0.468,0.914 -2.241,1.679 -4.45,2.393 -7.395,2.393 -4.315,0 -7.569,-2.685 -7.569,-6.246 l 0,-0.065 c 0,-3.6 2.279,-5.53 7.865,-6.661 5.177,-1.041 6.159,-2.391 6.159,-4.52 l 0,-0.066 c 0,-2.468 -2.229,-4.191 -5.419,-4.191 -2.975,0 -5.196,0.856 -7.427,2.864 -0.24,0.181 -0.499,0.271 -0.749,0.271 -0.618,0 -1.14,-0.522 -1.14,-1.14 0,-0.339 0.158,-0.66 0.435,-0.881 2.716,-2.235 5.426,-3.232 8.783,-3.232 4.59,0 7.796,2.661 7.796,6.471 l 0,0.065 C 7.672,-3.047 5.378,-1.094 0,0"
             style="fill:#ffffff;fill-opacity:1;fill-rule:nonzero;stroke:none"
             id="path3084"
             inkscape:connector-curvature="0" /></g></g></g></g></svg>